<mxfile host="app.diagrams.net" agent="Mozilla/5.0 (Windows NT 10.0; Win64; x64) AppleWebKit/537.36 (KHTML, like Gecko) Chrome/130.0.0.0 Safari/537.36" version="24.8.4">
  <diagram name="Page-1" id="yjnd1FHJHtnAn201m5Ft">
    <mxGraphModel dx="4568" dy="3760" grid="1" gridSize="10" guides="1" tooltips="1" connect="1" arrows="1" fold="1" page="1" pageScale="1" pageWidth="850" pageHeight="1100" math="0" shadow="0">
      <root>
        <mxCell id="0" />
        <mxCell id="1" parent="0" />
        <mxCell id="f6CViXQfKTtOMxBlkXP9-3" style="edgeStyle=orthogonalEdgeStyle;rounded=0;orthogonalLoop=1;jettySize=auto;html=1;" edge="1" parent="1" source="f6CViXQfKTtOMxBlkXP9-1" target="f6CViXQfKTtOMxBlkXP9-13">
          <mxGeometry relative="1" as="geometry">
            <mxPoint x="-800" y="-1870" as="targetPoint" />
            <Array as="points">
              <mxPoint x="-800" y="-2165" />
              <mxPoint x="-800" y="-1940" />
            </Array>
          </mxGeometry>
        </mxCell>
        <mxCell id="f6CViXQfKTtOMxBlkXP9-4" style="edgeStyle=orthogonalEdgeStyle;rounded=0;orthogonalLoop=1;jettySize=auto;html=1;" edge="1" parent="1" source="f6CViXQfKTtOMxBlkXP9-1" target="f6CViXQfKTtOMxBlkXP9-19">
          <mxGeometry relative="1" as="geometry">
            <mxPoint x="1700" y="-1870" as="targetPoint" />
            <Array as="points">
              <mxPoint x="1700" y="-2165" />
              <mxPoint x="1700" y="-1950" />
            </Array>
          </mxGeometry>
        </mxCell>
        <mxCell id="f6CViXQfKTtOMxBlkXP9-6" style="edgeStyle=orthogonalEdgeStyle;rounded=0;orthogonalLoop=1;jettySize=auto;html=1;" edge="1" parent="1" source="f6CViXQfKTtOMxBlkXP9-1" target="f6CViXQfKTtOMxBlkXP9-17">
          <mxGeometry relative="1" as="geometry">
            <mxPoint x="445" y="-1920" as="targetPoint" />
            <Array as="points">
              <mxPoint x="445" y="-1980" />
              <mxPoint x="445" y="-1980" />
            </Array>
          </mxGeometry>
        </mxCell>
        <mxCell id="f6CViXQfKTtOMxBlkXP9-7" style="edgeStyle=orthogonalEdgeStyle;rounded=0;orthogonalLoop=1;jettySize=auto;html=1;exitX=0.25;exitY=1;exitDx=0;exitDy=0;" edge="1" parent="1" source="f6CViXQfKTtOMxBlkXP9-1" target="f6CViXQfKTtOMxBlkXP9-15">
          <mxGeometry relative="1" as="geometry">
            <mxPoint x="-480" y="-1980" as="targetPoint" />
            <Array as="points">
              <mxPoint x="378" y="-2080" />
              <mxPoint x="-480" y="-2080" />
              <mxPoint x="-480" y="-2030" />
            </Array>
          </mxGeometry>
        </mxCell>
        <mxCell id="f6CViXQfKTtOMxBlkXP9-8" style="edgeStyle=orthogonalEdgeStyle;rounded=0;orthogonalLoop=1;jettySize=auto;html=1;exitX=0.75;exitY=1;exitDx=0;exitDy=0;" edge="1" parent="1" target="f6CViXQfKTtOMxBlkXP9-20">
          <mxGeometry relative="1" as="geometry">
            <mxPoint x="1147.5" y="-1990" as="targetPoint" />
            <mxPoint x="540.0000000000005" y="-2130" as="sourcePoint" />
            <Array as="points">
              <mxPoint x="540.5" y="-2085" />
              <mxPoint x="1147.5" y="-2085" />
              <mxPoint x="1147.5" y="-2040" />
            </Array>
          </mxGeometry>
        </mxCell>
        <mxCell id="f6CViXQfKTtOMxBlkXP9-9" style="edgeStyle=orthogonalEdgeStyle;rounded=0;orthogonalLoop=1;jettySize=auto;html=1;" edge="1" parent="1" source="f6CViXQfKTtOMxBlkXP9-1" target="f6CViXQfKTtOMxBlkXP9-16">
          <mxGeometry relative="1" as="geometry">
            <mxPoint x="-30" y="-1840" as="targetPoint" />
            <Array as="points">
              <mxPoint x="445" y="-2005" />
              <mxPoint x="-30" y="-2005" />
              <mxPoint x="-30" y="-1880" />
            </Array>
          </mxGeometry>
        </mxCell>
        <mxCell id="f6CViXQfKTtOMxBlkXP9-10" style="edgeStyle=orthogonalEdgeStyle;rounded=0;orthogonalLoop=1;jettySize=auto;html=1;" edge="1" parent="1" source="f6CViXQfKTtOMxBlkXP9-1" target="f6CViXQfKTtOMxBlkXP9-18">
          <mxGeometry relative="1" as="geometry">
            <mxPoint x="870" y="-1840" as="targetPoint" />
            <Array as="points">
              <mxPoint x="445" y="-2005" />
              <mxPoint x="870" y="-2005" />
              <mxPoint x="870" y="-1880" />
            </Array>
          </mxGeometry>
        </mxCell>
        <mxCell id="f6CViXQfKTtOMxBlkXP9-11" style="edgeStyle=orthogonalEdgeStyle;rounded=0;orthogonalLoop=1;jettySize=auto;html=1;" edge="1" parent="1" source="f6CViXQfKTtOMxBlkXP9-1" target="f6CViXQfKTtOMxBlkXP9-12">
          <mxGeometry relative="1" as="geometry">
            <mxPoint x="2430" y="-1930" as="targetPoint" />
          </mxGeometry>
        </mxCell>
        <mxCell id="f6CViXQfKTtOMxBlkXP9-1" value="&lt;font style=&quot;font-size: 10px;&quot;&gt;Descent of Nero: Nero struck a deal with an avatar of hades and is planning to be reincarnated. Odin sees this an reincarnates you to stop him. To ensure your success, Odin has granted you options for power.&lt;/font&gt;" style="rounded=1;whiteSpace=wrap;html=1;" vertex="1" parent="1">
          <mxGeometry x="310" y="-2200" width="270" height="70" as="geometry" />
        </mxCell>
        <mxCell id="f6CViXQfKTtOMxBlkXP9-12" value="&lt;font style=&quot;font-size: 10px;&quot;&gt;Affinity for light (Lightbringer: Power)&lt;/font&gt;" style="rhombus;whiteSpace=wrap;html=1;" vertex="1" parent="1">
          <mxGeometry x="2390" y="-1970" width="190" height="80" as="geometry" />
        </mxCell>
        <mxCell id="f6CViXQfKTtOMxBlkXP9-13" value="&lt;font style=&quot;font-size: 10px;&quot;&gt;Affinity for Darkness (Scion of Chaos)&lt;/font&gt;" style="rhombus;whiteSpace=wrap;html=1;" vertex="1" parent="1">
          <mxGeometry x="-900" y="-1910" width="200" height="80" as="geometry" />
        </mxCell>
        <mxCell id="f6CViXQfKTtOMxBlkXP9-15" value="&lt;font style=&quot;font-size: 9px;&quot;&gt;Affinity for Defence (Absolute body: Silver)&amp;nbsp;&lt;/font&gt;" style="rhombus;whiteSpace=wrap;html=1;" vertex="1" parent="1">
          <mxGeometry x="-580" y="-2020" width="200" height="80" as="geometry" />
        </mxCell>
        <mxCell id="f6CViXQfKTtOMxBlkXP9-16" value="&lt;font style=&quot;font-size: 10px;&quot;&gt;Warrior (Immortal Rank physique)&lt;/font&gt;" style="rhombus;whiteSpace=wrap;html=1;" vertex="1" parent="1">
          <mxGeometry x="-80" y="-1880" width="100" height="80" as="geometry" />
        </mxCell>
        <mxCell id="f6CViXQfKTtOMxBlkXP9-17" value="&lt;div style=&quot;&quot;&gt;&lt;span style=&quot;background-color: initial;&quot;&gt;&lt;font style=&quot;font-size: 10px;&quot;&gt;Affinity for will (Dominator: Principality)&lt;/font&gt;&lt;/span&gt;&lt;/div&gt;" style="rhombus;whiteSpace=wrap;html=1;align=center;" vertex="1" parent="1">
          <mxGeometry x="392.5" y="-1960" width="105" height="80" as="geometry" />
        </mxCell>
        <mxCell id="f6CViXQfKTtOMxBlkXP9-18" value="&lt;font style=&quot;font-size: 10px;&quot;&gt;No abilities (Heaven rank physique)&lt;/font&gt;" style="rhombus;whiteSpace=wrap;html=1;" vertex="1" parent="1">
          <mxGeometry x="780" y="-1870" width="190" height="80" as="geometry" />
        </mxCell>
        <mxCell id="f6CViXQfKTtOMxBlkXP9-19" value="&lt;font style=&quot;font-size: 10px;&quot;&gt;Runesmith (Mortal rank)&lt;/font&gt;" style="rhombus;whiteSpace=wrap;html=1;" vertex="1" parent="1">
          <mxGeometry x="1660" y="-1910" width="80" height="80" as="geometry" />
        </mxCell>
        <mxCell id="f6CViXQfKTtOMxBlkXP9-20" value="&lt;font style=&quot;font-size: 10px;&quot;&gt;Null (Immortal Rank)&lt;/font&gt;" style="rhombus;whiteSpace=wrap;html=1;" vertex="1" parent="1">
          <mxGeometry x="1107.5" y="-2030" width="80" height="80" as="geometry" />
        </mxCell>
      </root>
    </mxGraphModel>
  </diagram>
</mxfile>
